<svg xmlns="http://www.w3.org/2000/svg" width="38" height="25"><path d="M18 16v2h-1v1h-1v1h-1v1h-1v1h-1v1h-1v1h-1v1H8v-1H7v-1H6v-1H5v-1H4v-1H3v-1H2v-1H1v-1H0v-1h4v-3h8v1h2v2zm20 0v2h-1v1h-1v1h-1v1h-1v1h-1v1h-1v1h-1v1h-3v-1h-1v-1h-1v-1h-1v-1h-1v-1h-1v-1h-1v-1h-1v-1h-1v-1h4v-3h8v1h2v2zM17 7v2h-2v3H6v-1H5V9H3V8H1V7h1V6h1V5h1V4h1V3h1V2h1V1h1V0h2v1h1v1h1v1h1v1h1v1h1v1h1v1z"/><path d="M15 6v1h-3v3H6V7H3V6h1V5h1V4h1V3h1V2h1V1h2v1h1v1h1v1h1v1h1v1z" fill="#fff"/><path d="M37 7v2h-2v3h-9v-1h-1V9h-2V8h-2V7h1V6h1V5h1V4h1V3h1V2h1V1h1V0h2v1h1v1h1v1h1v1h1v1h1v1h1v1z"/><path d="M14 17v1h-1v1h-1v1h-1v1h-1v1H9v1H7v-1H6v-1H5v-1H4v-1H3v-1H2v-1h3v-3h6v3z" fill="#fff"/></svg>