<svg xmlns="http://www.w3.org/2000/svg" shape-rendering="optimizeSpeed" width="27" height="24"><path d="M26 6V5h-1V4h-1V3h-1V2h-1V1h-1V0h-1v1h-1v1h-1v1h-1v1h-1v1h-1v1h-1v1h3v4h7V7h3V6zM12 6V5h-1V4h-1V3H9V2H8V1H7V0H6v1H5v1H4v1H3v1H2v1H1v1H0v1h3v4h7V7h3V6z"/><path d="M10 5V4H9V3H8V2H7V1H6v1H5v1H4v1H3v1H2v1h2v4h5V6h2V5z" fill="#fff"/><path d="M26 18v1h-1v1h-1v1h-1v1h-1v1h-1v1h-1v-1h-1v-1h-1v-1h-1v-1h-1v-1h-1v-1h-1v-1h3v-4h7v4h3v1zm-14 0v1h-1v1h-1v1H9v1H8v1H7v1H6v-1H5v-1H4v-1H3v-1H2v-1H1v-1H0v-1h3v-4h7v4h3v1z"/><path d="M10 19v1H9v1H8v1H7v1H6v-1H5v-1H4v-1H3v-1H2v-1h2v-4h5v4h2v1z" fill="#fff"/></svg>