<svg version="1.1" shape-rendering="optimizeSpeed" xmlns="http://www.w3.org/2000/svg" xmlns:xlink="http://www.w3.org/1999/xlink" width="23px" height="36px" viewBox="0 0 23 36">
    <rect y="14" fill="#CCCCFF" width="6" height="9" />
    <g fill="#666699">
        <rect id="m" y="15" width="6" height="1" />
        <use y="2" xlink:href="#m" />
        <use y="4" xlink:href="#m" />
        <use y="6" xlink:href="#m" />
    </g>
    <use y="-2" fill="#A3A3D7" xlink:href="#m" />
    <path id="l" d="M15,26h5v4h3v1h-1v1h-1v1h-1v1h-1v1h-1v1h-1v-1h-1v-1h-1v-1h-1v-1h-1v-1h-1v-1h3V26z" />
    <use xlink:href="#l" transform="rotate(180,17.5,18)" />
    <use xlink:href="#l" fill="#333366" transform="rotate(180,11.5,18)" />
	<use xlink:href="#l" fill="#333366" x="-12" />
    <path fill="#A3A3D7" d="M2,4v1h2v4h3V5h2V4H8V3H7V2H6V1H5v1H4v1H3v1H2z" />
    <path fill="#A3A3D7" d="M2,32v-1h2v-4h3v4h2v1H8v1H7v1H6v1H5v-1H4v-1H3v-1H2z" />
</svg>