<?xml version="1.0" encoding="utf-8"?>
<!-- Generator: Adobe Illustrator 22.0.0, SVG Export Plug-In . SVG Version: 6.00 Build 0)  -->
<svg version="1.1" id="Calque_1" shape-rendering="optimizeSpeed"
	 xmlns="http://www.w3.org/2000/svg" xmlns:xlink="http://www.w3.org/1999/xlink" x="0px" y="0px" width="144px" height="16px"
	 viewBox="0 0 144 16" style="enable-background:new 0 0 144 16;" xml:space="preserve">
<style type="text/css">
	.st0{fill:#6563CF;}
	.st1{fill:#CCCBFF;}
	.st2{fill:#9996FF;}
	.st3{fill:#EEEEEE;}
	.st4{fill:#322E9C;}
	.st5{fill:#000057;}
	.st6{fill:#DDDDDD;}
	.st7{fill:#BBBBBB;}
	.st8{fill:#FFFFFF;}
	.st9{fill:#777777;}
	.st10{fill:#999999;}
	.st11{fill:#555555;}
</style>
<rect x="84" y="14" class="st0" width="60" height="2"/>
<rect x="100" y="15" class="st1" width="30" height="1"/>
<rect x="1" y="4" class="st2" width="6" height="7"/>
<polygon points="135,5 137,5 137,6 138,6 138,7 139,7 139,8 140,8 140,9 132,9 132,8 133,8 133,7 134,7 134,6 135,6 "/>
<rect x="130" y="15" class="st2" width="12" height="1"/>
<polygon points="102,5 110,5 110,6 109,6 109,7 108,7 108,8 107,8 107,9 105,9 105,8 104,8 104,7 103,7 103,6 102,6 "/>
<rect x="112" y="14" class="st2" width="3" height="2"/>
<rect x="99" y="15" class="st3" width="1" height="1"/>
<rect x="13" y="4" class="st1" width="6" height="7"/>
<rect x="13" y="5" class="st4" width="7" height="1"/>
<rect x="13" y="7" class="st4" width="7" height="1"/>
<rect x="13" y="9" class="st4" width="7" height="1"/>
<rect x="13" y="11" class="st4" width="7" height="1"/>
<rect x="12" y="4" class="st3" width="1" height="1"/>
<rect x="12" y="6" class="st3" width="1" height="1"/>
<rect x="12" y="8" class="st3" width="1" height="1"/>
<rect x="12" y="10" class="st3" width="1" height="1"/>
<rect x="1" y="5" class="st5" width="7" height="1"/>
<rect x="1" y="7" class="st5" width="7" height="1"/>
<rect x="1" y="9" class="st5" width="7" height="1"/>
<rect x="1" y="11" class="st5" width="7" height="1"/>
<rect y="4" class="st1" width="1" height="1"/>
<rect y="6" class="st1" width="1" height="1"/>
<rect y="8" class="st1" width="1" height="1"/>
<rect y="10" class="st1" width="1" height="1"/>
<polygon points="99,14 99,16 84,16 84,15 98,15 98,14 "/>
<polygon points="144,14 144,16 143,16 143,15 129,15 129,16 113,16 113,15 99,15 99,14 114,14 114,15 128,15 128,14 "/>
<rect x="85" y="14" class="st4" width="13" height="1"/>
<rect x="23" width="61" height="16"/>
<rect x="54" y="1" class="st6" width="14" height="14"/>
<polygon class="st7" points="67,2 68,2 68,15 55,15 55,14 67,14 "/>
<polygon class="st8" points="55,14 54,14 54,1 67,1 67,2 55,2 "/>
<rect x="52" class="st4" width="1" height="16"/>
<rect x="39" class="st2" width="1" height="16"/>
<rect x="37" class="st0" width="1" height="16"/>
<rect x="24" class="st1" width="1" height="16"/>
<rect x="69" y="1" class="st9" width="14" height="14"/>
<polygon class="st10" points="82,2 83,2 83,15 70,15 70,14 82,14 "/>
<polygon class="st11" points="82,1 82,2 70,2 70,14 69,14 69,1 "/>
<rect x="25" class="st2" width="12" height="16"/>
<rect x="40" class="st0" width="12" height="16"/>
</svg>
