<?xml version="1.0" encoding="utf-8"?>
<!-- Generator: Adobe Illustrator 23.0.6, SVG Export Plug-In . SVG Version: 6.00 Build 0)  -->
<svg version="1.1" id="Calque_1" xmlns="http://www.w3.org/2000/svg" xmlns:xlink="http://www.w3.org/1999/xlink" x="0px" y="0px"
	 width="6px" height="43px" viewBox="0 0 6 43" style="enable-background:new 0 0 6 43;" xml:space="preserve">
<polygon points="0,24 0,22 1,22 1,20 2,20 2,18 4,18 4,20 5,20 5,22 6,22 6,24 5,24 5,23 4,23 4,30 2,30 2,23 1,23 1,24 "/>
<polygon points="6,2 6,4 4,4 4,6 2,6 2,4 0,4 0,2 2,2 2,0 4,0 4,2 "/>
<rect y="41" width="6" height="2"/>
</svg>
